<?xml version="1.0" encoding="UTF-8" standalone="no"?>
<svg
   xmlns:dc="http://purl.org/dc/elements/1.1/"
   xmlns:cc="http://creativecommons.org/ns#"
   xmlns:rdf="http://www.w3.org/1999/02/22-rdf-syntax-ns#"
   xmlns:svg="http://www.w3.org/2000/svg"
   xmlns="http://www.w3.org/2000/svg"
   viewBox="0 0 960 384"
   height="384"
   width="960"
   xml:space="preserve"
   id="svg2"
   version="1.1"><metadata
     id="metadata8"><rdf:RDF><cc:Work
         rdf:about=""><dc:format>image/svg+xml</dc:format><dc:type
           rdf:resource="http://purl.org/dc/dcmitype/StillImage" /></cc:Work></rdf:RDF></metadata><defs
     id="defs6"><clipPath
       id="clipPath18"
       clipPathUnits="userSpaceOnUse"><path
         id="path16"
         d="M 0,288 H 720 V 0 H 0 Z" /></clipPath></defs><g
     transform="matrix(1.3333333,0,0,-1.3333333,0,384)"
     id="g10"><g
       id="g12"><g
         clip-path="url(#clipPath18)"
         id="g14"><g
           transform="translate(648,225.5586)"
           id="g20"><path
             id="path22"
             style="fill:#000020;fill-opacity:1;fill-rule:nonzero;stroke:none"
             d="m 0,0 -7.714,-18.389 h -1.267 c -1.559,3.664 -4.131,9.738 -4.538,10.682 -1.846,4.361 -4.274,6.464 -7.772,6.464 V 0 Z m -21.125,-105.701 c -5.919,0.795 -9.75,3.032 -9.75,12.145 v 49.536 h 12.413 l 3.893,9.262 h -16.306 v 13.778 c 0,10.934 -0.392,19.737 4.693,19.737 v 1.236 c -10.979,0 -27.634,-1.292 -27.634,-30.011 v -4.74 l -9.281,0.018 v -9.265 h 9.117 v -49.551 c 0,-9.113 -2.231,-11.028 -8.319,-12.145 v -1.13 h 41.174 z m -161.052,70.928 -9.151,-21.747 h -0.995 l -2.959,7.281 c -3.845,8.779 -7.356,12.203 -13.668,13.166 v 1.3 z m -19.075,-44.611 -12.214,-29.026 h -1.004 l -25.021,59.171 c -3.843,8.793 -7.353,12.203 -13.662,13.166 v 1.3 h 34.016 z m -62.348,44.611 h -34.017 v -1.3 c 6.31,-0.963 9.819,-4.373 13.662,-13.166 l 25.022,-59.171 h 1.003 l 12.213,29.026 z m -51.666,-28.781 c -0.484,16.803 -1.829,28.329 -9.599,29.073 -0.078,0.009 -0.135,0.009 -0.238,0.016 v 1.292 c 0,0 0.226,0 0.303,-0.007 19.889,-0.867 30.802,-15.577 31.609,-34.515 h -39.755 -0.067 v 1.244 l 17.747,2.618 m -13.221,-28.2 c -8.623,5.081 -10.308,12.803 -10.701,14.392 -3.347,13.409 -0.595,34.054 6.123,41.051 0.951,0.965 2.055,1.695 3.156,2.061 v 1.356 c -16.047,-2.054 -28.014,-11.643 -32.219,-26.63 -7.184,-33.127 17.122,-44.574 17.122,-44.574 20.639,-10.519 45.432,-0.496 50.704,20.812 l -0.884,0.469 c -7.812,-11.589 -25.067,-13.789 -33.301,-8.937 m -166.69,22.738 v 0 0.011 c 0,20.221 -14.001,34.402 -33.483,36.048 -0.115,0.013 -0.222,0.025 -0.331,0.032 -0.29,0.02 -0.577,0.043 -0.861,0.066 -0.761,0.056 -1.533,0.098 -2.294,0.098 -0.633,0 -1.678,0.012 -2.261,-0.004 h -0.429 v -1.125 c 1.529,-0.069 3.469,-0.467 5.096,-1.405 5.193,-2.83 8.134,-10.669 8.134,-32.475 0,-18.086 -1.839,-29.304 -4.88,-33.264 -2.061,-2.639 -4.812,-4.41 -8.35,-4.41 v -1.066 h 2.689 c 0.76,0 1.534,0.027 2.295,0.075 v -0.008 c 20.098,1.142 34.675,15.562 34.675,36.192 0,0.157 0,0.3 -0.013,0.449 0.013,0.054 0.013,0.097 0.013,0.146 0,0.056 0,0.121 -0.013,0.176 0.013,0.135 0.013,0.284 0.013,0.418 z M -544.62,-93.319 V -0.014 H -576 v -1.133 c 5.857,-1.142 8.455,-3.254 8.455,-12.349 v -73.12 l 0.006,-6.703 c 0,-9.264 -2.267,-11.214 -8.289,-12.358 v -1.139 h 36.115 v 1.139 c -4.071,0.973 -4.907,6.361 -4.907,12.358 m 471.18,-13.483 -0.014,106.782 h -31.418 v -1.134 c 5.855,-1.142 8.462,-3.251 8.462,-12.347 v -73.11 -6.698 c 0,-9.267 -2.262,-11.219 -8.279,-12.355 v -1.138 z m -65.958,1.115 c -1.129,-0.85 -2.337,-1.298 -3.483,-1.633 v -1.225 c 20.1,1.172 34.68,15.868 34.68,37.046 0,0.208 -0.016,0.416 -0.016,0.632 0,0.216 0.016,0.425 0.016,0.637 0,21.172 -14.58,35.869 -34.68,37.057 v -1.244 c 1.146,-0.323 2.354,-0.777 3.483,-1.618 4.565,-2.888 7.695,-10.753 7.695,-33.074 v -3.515 c 0,-22.314 -3.13,-30.187 -7.695,-33.063 m -11.84,0 c -4.563,2.876 -7.695,10.749 -7.695,33.063 v 3.515 c 0,22.321 3.132,30.186 7.695,33.074 1.117,0.841 2.334,1.295 3.487,1.618 v 1.244 c -20.104,-1.188 -34.682,-15.885 -34.682,-37.057 0,-0.212 0.012,-0.421 0.012,-0.637 0,-0.216 -0.012,-0.424 -0.012,-0.632 0,-21.178 14.578,-35.874 34.682,-37.046 v 1.225 c -1.153,0.335 -2.37,0.783 -3.487,1.633 m -254.243,3.909 c -9.579,0.114 -14.085,5.743 -14.073,16.291 l 0.019,50.717 h -31.447 v -1.129 c 5.873,-1.147 8.48,-3.264 8.48,-12.387 l -0.012,-38.184 c 0,-12 7.726,-22.075 20.921,-22.075 8.744,0 14.216,3.745 16.112,5.665 z m 3.283,67.008 v -1.137 c 3.734,-1.074 4.304,-6.267 4.348,-11.42 -0.013,-0.317 -0.025,-59.475 -0.025,-59.475 h 22.97 v 72.032 z m -89.478,-72.032 v 1.138 c 6.009,1.136 8.289,3.088 8.289,12.355 v 6.698 l -0.011,73.11 c 0,9.096 -2.611,11.205 -8.462,12.347 v 1.134 h 31.418 l 0.013,-106.782 z" /></g><g
           transform="translate(390.873,84.3828)"
           id="g24"><path
             id="path26"
             style="fill:#000020;fill-opacity:1;fill-rule:nonzero;stroke:none"
             d="M 0,0 C -0.312,-0.233 -0.724,-0.404 -1.231,-0.511 -1.74,-0.618 -2.273,-0.706 -2.83,-0.773 -3.388,-0.842 -3.95,-0.92 -4.517,-1.008 c -0.567,-0.087 -1.076,-0.228 -1.525,-0.423 -0.45,-0.194 -0.817,-0.471 -1.101,-0.832 -0.283,-0.36 -0.424,-0.851 -0.424,-1.473 0,-0.41 0.083,-0.754 0.249,-1.036 0.166,-0.283 0.381,-0.512 0.645,-0.687 0.264,-0.175 0.572,-0.302 0.924,-0.379 0.352,-0.078 0.724,-0.117 1.114,-0.117 0.822,0 1.526,0.112 2.113,0.336 0.586,0.223 1.065,0.506 1.437,0.847 0.371,0.34 0.646,0.71 0.821,1.109 C -0.088,-3.265 0,-2.89 0,-2.54 Z m 4.048,-7.773 c -0.43,-0.254 -1.027,-0.381 -1.789,-0.381 -0.646,0 -1.158,0.18 -1.54,0.542 -0.381,0.362 -0.572,0.953 -0.572,1.775 -0.685,-0.822 -1.481,-1.413 -2.391,-1.775 -0.909,-0.362 -1.892,-0.542 -2.947,-0.542 -0.685,0 -1.335,0.078 -1.952,0.234 -0.616,0.156 -1.148,0.4 -1.598,0.733 -0.45,0.333 -0.807,0.767 -1.071,1.305 -0.263,0.538 -0.396,1.189 -0.396,1.951 0,0.861 0.147,1.565 0.44,2.113 0.293,0.547 0.679,0.992 1.159,1.334 0.479,0.341 1.027,0.601 1.642,0.777 0.616,0.177 1.247,0.323 1.893,0.44 0.684,0.137 1.335,0.24 1.95,0.308 0.616,0.068 1.159,0.166 1.628,0.294 0.47,0.127 0.841,0.312 1.115,0.557 0.274,0.245 0.41,0.601 0.41,1.071 0,0.547 -0.102,0.987 -0.307,1.319 -0.205,0.333 -0.47,0.587 -0.792,0.763 -0.323,0.177 -0.685,0.294 -1.085,0.352 -0.402,0.059 -0.798,0.088 -1.189,0.088 -1.055,0 -1.935,-0.201 -2.639,-0.601 C -6.687,4.483 -7.069,3.726 -7.128,2.61 h -2.493 c 0.039,0.939 0.234,1.731 0.587,2.376 0.351,0.646 0.821,1.169 1.408,1.57 0.586,0.401 1.256,0.689 2.009,0.865 0.753,0.177 1.559,0.265 2.42,0.265 0.684,0 1.364,-0.049 2.039,-0.147 C -0.483,7.441 0.127,7.241 0.675,6.938 1.223,6.636 1.662,6.212 1.995,5.665 2.327,5.119 2.494,4.407 2.494,3.529 v -7.786 c 0,-0.586 0.033,-1.014 0.103,-1.288 0.068,-0.273 0.298,-0.41 0.689,-0.41 0.215,0 0.469,0.039 0.762,0.118 z" /></g><g
           transform="translate(401.0518,91.7158)"
           id="g28"><path
             id="path30"
             style="fill:#000020;fill-opacity:1;fill-rule:nonzero;stroke:none"
             d="m 0,0 v -2.405 h 0.059 c 1.037,1.838 2.679,2.758 4.928,2.758 0.997,0 1.828,-0.138 2.493,-0.412 0.665,-0.273 1.203,-0.655 1.614,-1.143 0.41,-0.489 0.699,-1.071 0.865,-1.745 0.166,-0.675 0.249,-1.423 0.249,-2.244 v -9.974 H 7.715 v 10.267 c 0,0.938 -0.274,1.681 -0.821,2.229 -0.548,0.547 -1.301,0.821 -2.259,0.821 -0.763,0 -1.423,-0.117 -1.98,-0.352 C 2.098,-2.435 1.633,-2.768 1.262,-3.197 0.89,-3.627 0.611,-4.131 0.426,-4.708 0.239,-5.285 0.147,-5.915 0.147,-6.6 v -8.565 h -2.494 l 0,15.165 z" /></g><path
           id="path32"
           style="fill:#000020;fill-opacity:1;fill-rule:nonzero;stroke:none"
           d="m 429.417,76.551 h -2.787 v 20.944 h 2.787 z" /><g
           transform="translate(445.3447,78.8975)"
           id="g34"><path
             id="path36"
             style="fill:#000020;fill-opacity:1;fill-rule:nonzero;stroke:none"
             d="M 0,0 C 1.232,0 2.195,0.332 2.89,0.997 3.584,1.662 3.931,2.581 3.931,3.755 3.931,4.438 3.804,5.006 3.55,5.456 3.295,5.905 2.958,6.263 2.538,6.526 2.117,6.791 1.633,6.977 1.086,7.084 0.538,7.191 -0.029,7.245 -0.615,7.245 H -6.981 V 0 Z m -1.407,9.592 c 1.584,0 2.722,0.279 3.417,0.836 0.693,0.557 1.041,1.393 1.041,2.508 0,0.743 -0.117,1.33 -0.352,1.76 -0.235,0.43 -0.557,0.763 -0.968,0.997 -0.411,0.235 -0.885,0.386 -1.422,0.455 -0.538,0.068 -1.111,0.103 -1.716,0.103 H -6.981 V 9.592 Z m -0.763,9.006 c 0.449,0 0.934,-0.006 1.451,-0.015 0.519,-0.011 1.031,-0.04 1.54,-0.088 0.509,-0.05 0.984,-0.123 1.423,-0.221 0.441,-0.097 0.817,-0.244 1.13,-0.439 0.684,-0.411 1.266,-0.979 1.745,-1.701 0.479,-0.725 0.719,-1.614 0.719,-2.67 0,-1.114 -0.27,-2.078 -0.807,-2.89 C 4.493,9.763 3.726,9.161 2.729,8.771 V 8.712 C 4.019,8.438 5.006,7.852 5.691,6.952 6.375,6.053 6.718,4.957 6.718,3.667 6.718,2.904 6.581,2.16 6.307,1.437 6.033,0.714 5.627,0.073 5.09,-0.484 4.552,-1.041 3.887,-1.491 3.095,-1.833 2.303,-2.176 1.389,-2.347 0.353,-2.347 H -9.768 v 20.945 z" /></g><g
           transform="translate(461.0088,97.4951)"
           id="g38"><path
             id="path40"
             style="fill:#000020;fill-opacity:1;fill-rule:nonzero;stroke:none"
             d="M 0,0 6.6,-17.601 13.229,0 h 3.814 V -20.944 H 14.402 V -3.521 H 14.344 L 7.803,-20.944 H 5.427 l -6.542,17.423 h -0.059 v -17.423 h -2.639 l 0,20.944 z" /></g><g
           transform="translate(506.4307,94.5322)"
           id="g42"><path
             id="path44"
             style="fill:#000020;fill-opacity:1;fill-rule:nonzero;stroke:none"
             d="m 0,0 c -1.066,0.743 -2.332,1.114 -3.799,1.114 -1.252,0 -2.322,-0.234 -3.212,-0.704 -0.889,-0.469 -1.623,-1.099 -2.2,-1.891 -0.577,-0.792 -1.002,-1.697 -1.275,-2.713 -0.275,-1.018 -0.411,-2.074 -0.411,-3.168 0,-1.194 0.136,-2.324 0.411,-3.389 0.273,-1.065 0.698,-1.994 1.275,-2.786 0.577,-0.792 1.315,-1.423 2.215,-1.893 0.899,-0.468 1.975,-0.704 3.226,-0.704 0.919,0 1.736,0.152 2.45,0.455 0.714,0.303 1.33,0.724 1.848,1.262 0.518,0.537 0.924,1.178 1.217,1.921 0.294,0.743 0.47,1.545 0.528,2.405 H 5.06 c -0.274,-2.639 -1.183,-4.693 -2.728,-6.16 -1.545,-1.467 -3.657,-2.2 -6.336,-2.2 -1.623,0 -3.041,0.279 -4.253,0.836 -1.213,0.557 -2.22,1.325 -3.021,2.302 -0.803,0.978 -1.404,2.132 -1.805,3.462 -0.4,1.33 -0.601,2.757 -0.601,4.283 0,1.525 0.215,2.958 0.645,4.297 0.431,1.339 1.06,2.508 1.893,3.505 0.831,0.997 1.867,1.785 3.109,2.362 1.241,0.577 2.664,0.865 4.267,0.865 1.095,0 2.132,-0.147 3.11,-0.44 C 0.317,2.728 1.188,2.298 1.951,1.73 2.713,1.163 3.349,0.454 3.857,-0.396 4.365,-1.247 4.698,-2.229 4.854,-3.344 H 2.068 C 1.755,-1.858 1.065,-0.743 0,0" /></g><g
           transform="translate(518.1924,81.6699)"
           id="g46"><path
             id="path48"
             style="fill:#000020;fill-opacity:1;fill-rule:nonzero;stroke:none"
             d="m 0,0 c 0.244,-0.715 0.582,-1.311 1.012,-1.79 0.43,-0.48 0.933,-0.846 1.51,-1.1 0.578,-0.255 1.189,-0.381 1.834,-0.381 0.646,0 1.256,0.126 1.833,0.381 0.577,0.254 1.081,0.62 1.511,1.1 0.43,0.479 0.768,1.075 1.012,1.79 0.244,0.713 0.367,1.529 0.367,2.449 0,0.919 -0.123,1.736 -0.367,2.449 C 8.468,5.611 8.13,6.213 7.7,6.702 7.27,7.19 6.766,7.562 6.189,7.816 5.612,8.07 5.002,8.198 4.356,8.198 3.711,8.198 3.1,8.07 2.522,7.816 1.945,7.562 1.442,7.19 1.012,6.702 0.582,6.213 0.244,5.611 0,4.898 -0.244,4.185 -0.366,3.368 -0.366,2.449 -0.366,1.529 -0.244,0.713 0,0 m -2.537,5.573 c 0.312,0.968 0.782,1.809 1.408,2.523 0.625,0.714 1.398,1.275 2.317,1.686 0.919,0.41 1.975,0.616 3.168,0.616 1.212,0 2.274,-0.206 3.183,-0.616 0.909,-0.411 1.677,-0.972 2.303,-1.686 0.625,-0.714 1.095,-1.555 1.407,-2.523 0.314,-0.969 0.47,-2.01 0.47,-3.124 0,-1.115 -0.156,-2.151 -0.47,-3.109 -0.312,-0.959 -0.782,-1.795 -1.407,-2.509 -0.626,-0.714 -1.394,-1.27 -2.303,-1.672 -0.909,-0.4 -1.971,-0.6 -3.183,-0.6 -1.193,0 -2.249,0.2 -3.168,0.6 -0.919,0.402 -1.692,0.958 -2.317,1.672 -0.626,0.714 -1.096,1.55 -1.408,2.509 -0.314,0.958 -0.47,1.994 -0.47,3.109 0,1.114 0.156,2.155 0.47,3.124" /></g><g
           transform="translate(536.6572,91.7158)"
           id="g50"><path
             id="path52"
             style="fill:#000020;fill-opacity:1;fill-rule:nonzero;stroke:none"
             d="m 0,0 v -2.229 h 0.059 c 1.134,1.72 2.767,2.582 4.899,2.582 0.938,0 1.789,-0.197 2.552,-0.587 0.762,-0.392 1.3,-1.056 1.613,-1.995 0.508,0.822 1.178,1.457 2.01,1.907 0.83,0.449 1.745,0.675 2.742,0.675 0.763,0 1.452,-0.084 2.068,-0.25 0.616,-0.166 1.144,-0.425 1.584,-0.778 0.44,-0.351 0.782,-0.806 1.027,-1.363 0.244,-0.558 0.366,-1.228 0.366,-2.01 v -11.117 h -2.493 v 9.944 c 0,0.469 -0.039,0.909 -0.117,1.32 -0.079,0.411 -0.225,0.767 -0.44,1.071 -0.216,0.303 -0.514,0.542 -0.895,0.719 -0.381,0.175 -0.875,0.263 -1.481,0.263 -1.232,0 -2.2,-0.352 -2.904,-1.055 C 9.886,-3.607 9.534,-4.546 9.534,-5.72 v -9.445 H 7.04 v 9.944 c 0,0.489 -0.044,0.939 -0.132,1.349 -0.088,0.411 -0.239,0.768 -0.454,1.071 -0.216,0.303 -0.504,0.537 -0.866,0.704 -0.361,0.166 -0.826,0.249 -1.393,0.249 -0.723,0 -1.344,-0.146 -1.863,-0.44 C 1.814,-2.581 1.394,-2.933 1.071,-3.344 0.748,-3.754 0.514,-4.18 0.367,-4.62 0.221,-5.06 0.147,-5.427 0.147,-5.72 v -9.445 h -2.494 l 0,15.165 z" /></g><g
           transform="translate(572.3418,86.333)"
           id="g54"><path
             id="path56"
             style="fill:#000020;fill-opacity:1;fill-rule:nonzero;stroke:none"
             d="m 0,0 c -0.186,0.675 -0.47,1.276 -0.851,1.805 -0.38,0.527 -0.87,0.948 -1.466,1.26 -0.597,0.313 -1.296,0.47 -2.098,0.47 -0.841,0 -1.555,-0.166 -2.141,-0.499 C -7.143,2.704 -7.622,2.269 -7.993,1.731 -8.365,1.193 -8.634,0.582 -8.8,-0.103 -8.966,-0.787 -9.049,-1.48 -9.049,-2.185 c 0,-0.744 0.088,-1.462 0.264,-2.156 0.176,-0.694 0.454,-1.305 0.836,-1.833 0.381,-0.528 0.875,-0.954 1.481,-1.276 0.606,-0.322 1.339,-0.485 2.2,-0.485 0.861,0 1.579,0.166 2.156,0.499 0.577,0.332 1.042,0.773 1.393,1.321 0.353,0.547 0.607,1.173 0.763,1.877 0.156,0.704 0.234,1.427 0.234,2.171 C 0.278,-1.363 0.186,-0.674 0,0 M -8.961,5.383 V 3.33 h 0.059 c 0.41,0.84 1.055,1.452 1.935,1.833 0.88,0.382 1.849,0.572 2.905,0.572 1.172,0 2.195,-0.215 3.065,-0.645 0.87,-0.431 1.594,-1.012 2.171,-1.745 0.576,-0.734 1.012,-1.58 1.305,-2.538 0.293,-0.958 0.44,-1.975 0.44,-3.05 0,-1.076 -0.143,-2.093 -0.426,-3.051 -0.283,-0.959 -0.714,-1.795 -1.29,-2.508 -0.577,-0.715 -1.301,-1.276 -2.171,-1.687 -0.87,-0.41 -1.883,-0.615 -3.036,-0.615 -0.372,0 -0.787,0.039 -1.247,0.117 -0.459,0.078 -0.914,0.205 -1.363,0.381 -0.45,0.175 -0.876,0.415 -1.277,0.718 -0.401,0.303 -0.738,0.68 -1.011,1.13 h -0.059 v -7.803 h -2.493 V 5.383 Z" /></g><g
           transform="translate(589.0469,84.3828)"
           id="g58"><path
             id="path60"
             style="fill:#000020;fill-opacity:1;fill-rule:nonzero;stroke:none"
             d="M 0,0 C -0.312,-0.233 -0.724,-0.404 -1.231,-0.511 -1.74,-0.618 -2.273,-0.706 -2.83,-0.773 -3.388,-0.842 -3.95,-0.92 -4.517,-1.008 c -0.567,-0.087 -1.076,-0.228 -1.525,-0.423 -0.45,-0.194 -0.817,-0.471 -1.101,-0.832 -0.283,-0.36 -0.424,-0.851 -0.424,-1.473 0,-0.41 0.083,-0.754 0.249,-1.036 0.166,-0.283 0.381,-0.512 0.645,-0.687 0.264,-0.175 0.572,-0.302 0.924,-0.379 0.352,-0.078 0.724,-0.117 1.114,-0.117 0.822,0 1.526,0.112 2.113,0.336 0.586,0.223 1.065,0.506 1.437,0.847 0.371,0.34 0.646,0.71 0.821,1.109 C -0.088,-3.265 0,-2.89 0,-2.54 Z m 4.048,-7.773 c -0.43,-0.254 -1.027,-0.381 -1.789,-0.381 -0.646,0 -1.158,0.18 -1.54,0.542 -0.381,0.362 -0.572,0.953 -0.572,1.775 -0.685,-0.822 -1.481,-1.413 -2.391,-1.775 -0.909,-0.362 -1.892,-0.542 -2.947,-0.542 -0.685,0 -1.335,0.078 -1.952,0.234 -0.616,0.156 -1.148,0.4 -1.598,0.733 -0.45,0.333 -0.807,0.767 -1.071,1.305 -0.263,0.538 -0.396,1.189 -0.396,1.951 0,0.861 0.147,1.565 0.44,2.113 0.293,0.547 0.679,0.992 1.159,1.334 0.479,0.341 1.027,0.601 1.642,0.777 0.616,0.177 1.247,0.323 1.893,0.44 0.684,0.137 1.335,0.24 1.95,0.308 0.616,0.068 1.159,0.166 1.628,0.294 0.47,0.127 0.841,0.312 1.115,0.557 0.274,0.245 0.41,0.601 0.41,1.071 0,0.547 -0.102,0.987 -0.307,1.319 -0.205,0.333 -0.47,0.587 -0.792,0.763 -0.323,0.177 -0.685,0.294 -1.085,0.352 -0.402,0.059 -0.798,0.088 -1.189,0.088 -1.055,0 -1.935,-0.201 -2.639,-0.601 C -6.687,4.483 -7.069,3.726 -7.128,2.61 h -2.493 c 0.039,0.939 0.234,1.731 0.587,2.376 0.351,0.646 0.821,1.169 1.408,1.57 0.586,0.401 1.256,0.689 2.009,0.865 0.753,0.177 1.559,0.265 2.42,0.265 0.684,0 1.364,-0.049 2.039,-0.147 C -0.483,7.441 0.127,7.241 0.675,6.938 1.223,6.636 1.662,6.212 1.995,5.665 2.327,5.119 2.494,4.407 2.494,3.529 v -7.786 c 0,-0.586 0.033,-1.014 0.103,-1.288 0.068,-0.273 0.298,-0.41 0.689,-0.41 0.215,0 0.469,0.039 0.762,0.118 z" /></g><g
           transform="translate(599.2246,91.7158)"
           id="g62"><path
             id="path64"
             style="fill:#000020;fill-opacity:1;fill-rule:nonzero;stroke:none"
             d="m 0,0 v -2.405 h 0.059 c 1.037,1.838 2.679,2.758 4.928,2.758 0.997,0 1.828,-0.138 2.493,-0.412 0.665,-0.273 1.203,-0.655 1.614,-1.143 0.41,-0.489 0.699,-1.071 0.865,-1.745 0.166,-0.675 0.249,-1.423 0.249,-2.244 v -9.974 H 7.715 v 10.267 c 0,0.938 -0.274,1.681 -0.821,2.229 -0.548,0.547 -1.301,0.821 -2.259,0.821 -0.763,0 -1.423,-0.117 -1.98,-0.352 C 2.098,-2.435 1.633,-2.768 1.262,-3.197 0.89,-3.627 0.611,-4.131 0.426,-4.708 0.239,-5.285 0.147,-5.915 0.147,-6.6 v -8.565 h -2.494 l 0,15.165 z" /></g><g
           transform="translate(620.6094,74.5264)"
           id="g66"><path
             id="path68"
             style="fill:#000020;fill-opacity:1;fill-rule:nonzero;stroke:none"
             d="m 0,0 c -0.293,-0.742 -0.582,-1.368 -0.865,-1.877 -0.284,-0.508 -0.597,-0.924 -0.939,-1.247 -0.342,-0.322 -0.723,-0.557 -1.144,-0.703 -0.421,-0.148 -0.905,-0.221 -1.452,-0.221 -0.293,0 -0.586,0.02 -0.88,0.059 -0.293,0.04 -0.577,0.108 -0.851,0.206 v 2.288 c 0.215,-0.098 0.465,-0.181 0.748,-0.25 0.283,-0.068 0.524,-0.103 0.719,-0.103 0.509,0 0.934,0.122 1.276,0.368 0.342,0.244 0.601,0.59 0.778,1.041 l 1.026,2.551 -6.014,15.077 h 2.817 L -0.352,4.782 h 0.059 L 3.96,17.189 H 6.6 Z" /></g></g></g></g></svg>