<?xml version="1.0" encoding="UTF-8" standalone="no"?>
<svg
   xmlns:dc="http://purl.org/dc/elements/1.1/"
   xmlns:cc="http://creativecommons.org/ns#"
   xmlns:rdf="http://www.w3.org/1999/02/22-rdf-syntax-ns#"
   xmlns:svg="http://www.w3.org/2000/svg"
   xmlns="http://www.w3.org/2000/svg"
   viewBox="0 0 305.75467 107.61627"
   height="107.61627"
   width="305.75467"
   xml:space="preserve"
   id="svg2"
   version="1.1"><metadata
     id="metadata8"><rdf:RDF><cc:Work
         rdf:about=""><dc:format>image/svg+xml</dc:format><dc:type
           rdf:resource="http://purl.org/dc/dcmitype/StillImage" /></cc:Work></rdf:RDF></metadata><defs
     id="defs6"><clipPath
       id="clipPath18"
       clipPathUnits="userSpaceOnUse"><path
         id="path16"
         d="M 0,80.712 H 229.316 V 0 H 0 Z" /></clipPath></defs><g
     transform="matrix(1.3333333,0,0,-1.3333333,0,107.61627)"
     id="g10"><g
       id="g12"><g
         clip-path="url(#clipPath18)"
         id="g14"><g
           transform="translate(85.5005,49.5057)"
           id="g20"><path
             id="path22"
             style="fill:#000000;fill-opacity:1;fill-rule:nonzero;stroke:none"
             d="M 0,0 C 3.464,0 5.72,-1.112 7.977,-2.796 L 5.943,-6.547 c -1.621,1.24 -3.401,2.161 -5.911,2.161 -4.513,0 -7.246,-3.114 -7.246,-7.087 0,-3.972 2.733,-7.087 7.246,-7.087 2.51,0 4.29,0.922 5.911,2.162 l 2.034,-3.751 C 5.72,-21.833 3.464,-22.945 0,-22.945 c -7.532,0 -12.204,5.275 -12.204,11.472 C -12.204,-5.275 -7.532,0 0,0" /></g><g
           transform="translate(106.8262,31.0731)"
           id="g24"><path
             id="path26"
             style="fill:#000000;fill-opacity:1;fill-rule:nonzero;stroke:none"
             d="m 0,0 c 3.655,0 6.674,2.892 6.674,6.96 0,4.068 -3.019,6.96 -6.674,6.96 -3.686,0 -6.705,-2.892 -6.705,-6.96 C -6.705,2.892 -3.686,0 0,0 M 0,18.433 C 6.356,18.433 11.537,13.284 11.537,6.96 11.537,0.636 6.356,-4.513 0,-4.513 c -6.388,0 -11.568,5.149 -11.568,11.473 0,6.324 5.18,11.473 11.568,11.473" /></g><g
           transform="translate(131.6802,38.6371)"
           id="g28"><path
             id="path30"
             style="fill:#000000;fill-opacity:1;fill-rule:nonzero;stroke:none"
             d="M 0,0 C 1.748,0 2.828,1.367 2.828,3.273 2.828,5.244 1.748,6.61 0,6.61 H -4.195 V 0 Z m -9.121,-11.727 v 22.246 h 9.757 c 4.608,0 7.15,-3.369 7.15,-7.277 0,-3.909 -2.574,-7.119 -7.15,-7.119 h -4.831 v -7.85 z" /></g><g
           transform="translate(147,35.0457)"
           id="g32"><path
             id="path34"
             style="fill:#000000;fill-opacity:1;fill-rule:nonzero;stroke:none"
             d="M 0,0 H 6.006 L 3.051,8.898 Z M -7.945,-8.136 0.635,14.11 H 5.434 L 14.142,-8.136 H 8.994 l -1.589,4.163 v -0.063 h -8.74 v 0.063 L -2.86,-8.136 Z" /></g><g
           transform="translate(172.5522,45.2474)"
           id="g36"><path
             id="path38"
             style="fill:#000000;fill-opacity:1;fill-rule:nonzero;stroke:none"
             d="M 0,0 H -3.4 V -14.428 H 0 c 4.227,0 6.865,3.241 6.865,7.214 C 6.865,-3.242 4.227,0 0,0 M 0,-18.337 H -8.327 V 3.909 H 0 c 7.278,0 11.823,-4.99 11.823,-11.123 0,-6.134 -4.545,-11.123 -11.823,-11.123" /></g><g
           transform="translate(198.7725,31.0731)"
           id="g40"><path
             id="path42"
             style="fill:#000000;fill-opacity:1;fill-rule:nonzero;stroke:none"
             d="m 0,0 c 3.655,0 6.674,2.892 6.674,6.96 0,4.068 -3.019,6.96 -6.674,6.96 -3.687,0 -6.706,-2.892 -6.706,-6.96 C -6.706,2.892 -3.687,0 0,0 M 0,18.433 C 6.356,18.433 11.537,13.284 11.537,6.96 11.537,0.636 6.356,-4.513 0,-4.513 c -6.388,0 -11.568,5.149 -11.568,11.473 0,6.324 5.18,11.473 11.568,11.473" /></g><g
           transform="translate(65.6392,38.1151)"
           id="g44"><path
             id="path46"
             style="fill:#3593c6;fill-opacity:1;fill-rule:nonzero;stroke:none"
             d="m 0,0 c 0,-14.565 -11.808,-26.373 -26.373,-26.373 -14.565,0 -26.373,11.808 -26.373,26.373 0,14.565 11.808,26.373 26.373,26.373 C -11.808,26.373 0,14.565 0,0" /></g><g
           transform="translate(49.418,48.1834)"
           id="g48"><path
             id="path50"
             style="fill:#ffffff;fill-opacity:1;fill-rule:nonzero;stroke:none"
             d="m 0,0 c -3.094,0 -5.86,-1.38 -7.722,-3.546 v 0.005 l -0.029,-0.037 c -0.222,-0.261 -0.433,-0.531 -0.627,-0.814 l -2.191,-2.837 -4.746,-6.151 -0.524,-0.679 -0.325,-0.42 v 0 c -1.062,-1.069 -2.518,-1.697 -4.112,-1.697 -3.235,0 -5.885,2.538 -5.885,6.108 0,3.569 2.65,6.108 5.885,6.108 2.13,0 4.01,-1.124 5.035,-2.923 l 2.777,3.201 C -14.322,-1.437 -17.133,0 -20.276,0 c -5.606,0 -10.152,-4.518 -10.152,-10.068 0,-5.55 4.546,-10.068 10.152,-10.068 2.606,0 4.975,0.997 6.772,2.614 l 8.536,10.808 -0.005,-0.018 c 1.045,1.71 2.885,2.772 4.973,2.772 3.208,0 5.857,-2.539 5.857,-6.108 0,-3.57 -2.649,-6.108 -5.857,-6.108 -3.235,0 -5.885,2.538 -5.885,6.108 l -3.355,-4.138 c 1.593,-3.49 5.125,-5.93 9.24,-5.93 5.578,0 10.124,4.518 10.124,10.068 C 10.124,-4.518 5.578,0 0,0" /></g><g
           transform="translate(51.0742,37.8744)"
           id="g52"><path
             id="path54"
             style="fill:#ffffff;fill-opacity:1;fill-rule:nonzero;stroke:none"
             d="m 0,0 c 0,-0.922 -0.748,-1.67 -1.67,-1.67 -0.923,0 -1.67,0.748 -1.67,1.67 0,0.923 0.747,1.67 1.67,1.67 C -0.748,1.67 0,0.923 0,0" /></g></g></g></g></svg>