<?xml version="1.0" encoding="UTF-8" standalone="no"?>
<svg
   xmlns:dc="http://purl.org/dc/elements/1.1/"
   xmlns:cc="http://creativecommons.org/ns#"
   xmlns:rdf="http://www.w3.org/1999/02/22-rdf-syntax-ns#"
   xmlns:svg="http://www.w3.org/2000/svg"
   xmlns="http://www.w3.org/2000/svg"
   viewBox="0 0 238.22667 129.10667"
   height="129.10667"
   width="238.22667"
   xml:space="preserve"
   id="svg2"
   version="1.1"><metadata
     id="metadata8"><rdf:RDF><cc:Work
         rdf:about=""><dc:format>image/svg+xml</dc:format><dc:type
           rdf:resource="http://purl.org/dc/dcmitype/StillImage" /></cc:Work></rdf:RDF></metadata><defs
     id="defs6" /><g
     transform="matrix(1.3333333,0,0,-1.3333333,0,129.10667)"
     id="g10"><g
       transform="scale(0.1)"
       id="g12"><path
         id="path14"
         style="fill:#5c5e65;fill-opacity:1;fill-rule:nonzero;stroke:none"
         d="m 1720.97,325.879 c 0,18.07 14.25,33.047 32.87,33.047 18.06,0 32.86,-14.344 32.86,-32.586 0,-18.516 -14.52,-33.125 -32.86,-33.125 -18.25,0 -32.87,14.961 -32.87,32.664 m 62.27,0.09 c 0,16.437 -12.79,29.504 -29.4,29.504 -16.62,0 -29.41,-13.067 -29.41,-29.504 0,-15.879 12.88,-29.317 29.41,-29.317 16.25,0 29.4,12.801 29.4,29.317 m -35.49,-10.891 c 0,-5.527 0.27,-4.902 4.55,-5.176 v -1.726 h -15.26 v 1.726 c 3.18,0 4.44,0 4.44,2.825 v 29.496 c -0.27,2.625 -2.25,2.359 -4.44,2.359 v 1.996 h 15.34 c 6.53,0 14.98,-0.91 14.98,-9.523 0,-5.645 -5.09,-9.805 -10.34,-10.18 v -0.172 c 8.35,-1.449 7.43,-16.801 14.78,-16.801 v -1.726 h -2.53 c -6.54,0 -7,0 -10.44,8.359 -2.36,5.723 -2.73,9.16 -9.44,9.16 h -1.64 z m 1.45,12.805 c 6.09,0 11.9,0.722 11.9,8.441 0,5.899 -3.36,8.086 -8.8,8.086 -3.82,0 -4.55,0 -4.55,-4 v -12.527 h 1.45" /><path
         id="path16"
         style="fill:#5c5e65;fill-opacity:1;fill-rule:nonzero;stroke:none"
         d="m 72.3984,478.793 c 0,-15.102 -0.8867,-15.102 16.875,-15.102 h 47.9646 c 46.188,0 34.2,35.528 44.856,35.528 3.554,0 4.875,-4.887 4.875,-8.434 0,-15.547 -0.883,-30.644 -0.883,-44.851 0,-11.555 0.883,-23.102 0.883,-35.09 0,-4.004 -1.77,-5.781 -4.875,-5.781 -13.766,0 1.332,39.089 -35.973,39.089 H 80.3867 c -9.3242,0 -7.9883,-7.554 -7.9883,-14.211 v -81.718 c 0,-26.2 -3.5586,-36.864 33.7466,-36.864 102.593,0 117.699,45.743 123.468,45.743 3.114,0 3.547,-4.434 3.547,-5.329 0,-15.988 -11.535,-31.531 -22.199,-43.082 -14.211,-15.988 -23.992,-15.086 -43.523,-15.086 -33.754,0 -67.5044,2.657 -101.2583,1.778 -17.7734,-0.449 -36.418,-1.778 -54.1797,-1.778 -4,0 -6.66016,0.879 -6.66016,4.422 0.88282,5.332 5.32816,4.453 19.53516,11.563 11.5469,5.332 12.4375,17.754 12.4375,38.633 v 202.519 c 0,19.981 0,41.305 -23.9844,44.848 -3.55466,0.89 -13.33200625,1.777 -13.33200625,7.105 0,3.559 2.67187625,5.332 15.55860625,5.332 83.9297,0 107.0273,-1.773 125.6793,-1.773 8.887,0 49.735,1.773 63.508,1.773 3.551,0 4.434,-4.441 4.434,-9.765 0,-49.297 -6.203,-52.84 -8.875,-52.84 -10.656,0 -3.551,21.312 -10.656,31.527 -11.551,15.098 -57.735,12.426 -75.5,12.426 -42.6333,0 -41.7466,1.781 -41.7466,-27.973 v -82.609" /><path
         id="path18"
         style="fill:#5c5e65;fill-opacity:1;fill-rule:nonzero;stroke:none"
         d="m 280.258,437.934 c 0,26.636 -24.43,15.109 -24.43,24.429 0,2.668 1.777,4.446 4,4.883 28.426,7.992 37.305,22.211 47.524,22.211 2.66,0 5.32,-2.68 5.32,-7.102 V 322.902 c 0,-22.636 35.086,-12.871 35.086,-24.414 0,-3.554 -2.664,-4.883 -8.434,-4.883 -9.332,0 -23.097,1.766 -41.304,1.766 -14.207,0 -25.758,-1.766 -30.645,-1.766 -3.555,0 -6.215,0.43 -6.66,4.883 0,11.09 19.543,-5.773 19.543,34.633 z m 34.64,115.906 c 0,-5.324 -12.878,-23.086 -18.652,-23.086 -5.328,0 -18.66,18.207 -18.66,23.086 0,4.894 13.332,23.547 18.66,23.547 5.774,0 18.652,-18.215 18.652,-23.547" /><path
         id="path20"
         style="fill:#5c5e65;fill-opacity:1;fill-rule:nonzero;stroke:none"
         d="m 507.199,574.723 c 0,26.64 -35.082,15.101 -35.082,24.422 0,2.671 1.774,4.445 4,4.89 34.199,7.996 47.961,22.207 58.172,22.207 2.668,0 5.328,-2.668 5.328,-7.105 V 315.352 c 0,-5.313 8.883,-8.875 23.539,-11.094 3.117,-0.438 4.891,-0.438 4.891,-3.992 0,-3.118 -11.551,-6.231 -27.977,-6.231 -11.558,0 -23.988,-3.547 -27.984,-3.547 -3.555,0 -4.887,3.547 -4.887,6.66 v 24.426 h -0.894 c -15.094,-19.094 -39.52,-31.086 -65.278,-31.086 -48.851,0 -78.605,44.86 -78.605,90.606 0,52.402 36.859,104.801 92.816,104.801 18.653,0 36.86,-5.313 51.961,-15.528 z m 0,-150.559 c 0,32.871 -26.64,51.516 -58.621,51.516 -41.75,0 -60.402,-39.078 -60.402,-75.95 0,-36.847 26.652,-90.152 68.844,-90.152 36.859,0 50.179,22.66 50.179,38.649 v 75.937" /><path
         id="path22"
         style="fill:#5c5e65;fill-opacity:1;fill-rule:nonzero;stroke:none"
         d="m 616.02,407.73 c 0,-73.265 44.418,-95.035 71.503,-95.035 38.196,0 52.852,23.09 62.625,23.09 1.782,0 1.782,-1.777 1.782,-3.113 0,-10.219 -38.641,-42.184 -78.617,-42.184 -66.618,0 -89.711,61.731 -89.711,91.047 0,56.84 31.531,104.36 87.05,104.36 54.629,0 78.602,-52.852 78.602,-70.618 0,-7.98 -4.879,-7.547 -15.098,-7.547 z m 87.492,12 c 6.222,0 8.883,2.208 8.883,8.879 0,24.868 -24.872,47.071 -49.297,47.071 -27.528,0 -47.078,-31.535 -47.078,-55.95 h 87.492" /><path
         id="path24"
         style="fill:#5c5e65;fill-opacity:1;fill-rule:nonzero;stroke:none"
         d="m 817.66,563.625 c 0,33.738 -39.531,29.309 -39.531,38.188 0,6.667 6.66,6.214 11.992,6.214 8.887,0 17.762,-1.773 35.527,-1.773 17.77,0 35.532,1.773 71.059,1.773 78.164,0 97.703,-42.632 97.703,-75.504 0,-45.3 -41.746,-59.949 -41.746,-63.066 0,-6.66 69.726,-7.98 69.726,-81.703 0,-29.313 -21.32,-94.149 -107.921,-94.149 -15.985,0 -42.633,1.766 -57.735,1.766 -20.421,0 -41.3,-1.766 -61.726,-1.766 -2.227,0 -11.106,0.879 -11.106,4.883 0,4.442 5.328,5.762 13.321,8.438 4.894,1.328 20.437,3.543 20.437,38.187 z m 35.082,-76.844 c 0,-14.207 -5.328,-16.418 34.637,-16.418 72.832,0 76.387,27.078 76.387,47.953 0,47.957 -40.411,75.055 -85.266,75.055 -27.98,0 -25.758,-7.539 -25.758,-33.308 z m 0,-139.894 c 0,-31.965 -2.222,-41.301 60.84,-41.301 59.063,0 75.066,39.082 75.066,65.727 0,28.425 -1.785,85.273 -103.929,85.273 -34.199,0 -31.977,-6.223 -31.977,-10.215 v -99.484" /><path
         id="path26"
         style="fill:#5c5e65;fill-opacity:1;fill-rule:nonzero;stroke:none"
         d="m 1157.42,435.719 c 0,23.086 -18.22,38.633 -45.75,38.633 -21.31,0 -38.64,-2.219 -38.64,-26.641 0,-6.672 2.67,-13.332 2.67,-18.219 0,-4.871 -1.33,-8.437 -9.76,-8.437 -7.55,0 -20.87,6.664 -20.87,14.664 0.44,20.433 25.31,51.511 74.6,50.179 27.53,0 70.17,-7.996 70.17,-45.75 v -91.925 c 0,-15.102 -4,-41.309 19.09,-41.309 1.78,0 5.77,0.899 7.55,0.899 2.23,0 5.78,0 5.78,-3.114 0,-9.328 -19.55,-11.094 -25.76,-11.094 -17.32,0 -28.88,7.989 -34.63,22.637 -18.67,-15.988 -43.08,-25.754 -67.96,-25.754 -28.87,0 -47.97,10.657 -47.97,42.188 0,23.547 7.55,51.515 111.48,68.832 z m 0,-44.864 c -28.44,-6.214 -82.61,-13.32 -82.61,-52.406 0,-25.312 12.88,-35.09 36.42,-35.09 15.99,0 46.19,12.442 46.19,35.989 v 51.507" /><path
         id="path28"
         style="fill:#5c5e65;fill-opacity:1;fill-rule:nonzero;stroke:none"
         d="m 1267.11,437.934 c 0,26.636 -24.43,15.109 -24.43,24.429 0,2.668 1.78,4.446 4,4.883 28.43,7.992 37.31,22.211 47.53,22.211 2.65,0 5.32,-2.68 5.32,-7.102 V 322.902 c 0,-22.636 35.08,-12.871 35.08,-24.414 0,-3.554 -2.65,-4.883 -8.43,-4.883 -9.33,0 -23.09,1.766 -41.31,1.766 -14.21,0 -25.74,-1.766 -30.63,-1.766 -3.55,0 -6.22,0.43 -6.67,4.883 0,11.09 19.54,-5.773 19.54,34.633 z m 34.64,115.906 c 0,-5.324 -12.87,-23.086 -18.65,-23.086 -5.33,0 -18.65,18.207 -18.65,23.086 0,4.894 13.32,23.547 18.65,23.547 5.78,0 18.65,-18.215 18.65,-23.547" /><path
         id="path30"
         style="fill:#5c5e65;fill-opacity:1;fill-rule:nonzero;stroke:none"
         d="m 1417.22,329.566 c 0,-30.648 36.87,-17.757 36.87,-29.75 0,-5.332 -3.56,-6.222 -10.21,-6.222 -6.22,0 -19.99,1.777 -40.86,1.777 -21.76,0 -30.2,-1.777 -34.64,-1.777 -3.57,0 -5.33,1.777 -5.33,5.781 0,6.672 21.75,5.324 21.75,24.426 v 250.918 c 0,26.648 -30.18,15.101 -30.18,24.433 0,2.661 1.76,4.434 3.99,4.875 34.19,8 43.08,22.207 53.29,22.207 2.67,0 5.32,-2.66 5.32,-7.101 V 329.566" /><path
         id="path32"
         style="fill:#5c5e65;fill-opacity:1;fill-rule:nonzero;stroke:none"
         d="m 1535.82,329.566 c 0,-30.648 36.86,-17.757 36.86,-29.75 0,-5.332 -3.56,-6.222 -10.22,-6.222 -6.21,0 -19.98,1.777 -40.86,1.777 -21.76,0 -30.19,-1.777 -34.63,-1.777 -3.56,0 -5.32,1.777 -5.32,5.781 0,6.672 21.75,5.324 21.75,24.426 v 250.918 c 0,26.648 -30.2,15.101 -30.2,24.433 0,2.661 1.78,4.434 4,4.875 34.19,8 43.08,22.207 53.29,22.207 2.66,0 5.33,-2.66 5.33,-7.101 V 329.566" /><path
         id="path34"
         style="fill:#5c5e65;fill-opacity:1;fill-rule:nonzero;stroke:none"
         d="m 1659.28,206.555 c -0.43,-1.34 -8.43,-1.34 -14.65,-1.34 -6.21,0 -16.43,-0.438 -16.43,3.113 0,9.777 40.41,43.078 40.41,77.719 0,10.664 -4.89,20.43 -8.89,29.754 l -58.17,143.457 c -3.99,9.765 -20.88,10.199 -20.88,16.426 0,4.433 2.68,5.328 8.89,5.328 9.32,0 19.1,-1.774 31.09,-1.774 15.55,0 25.76,1.774 32.85,1.774 6.68,0 9.33,-0.895 9.33,-5.774 0,-9.328 -25.31,-0.449 -25.31,-18.207 0,-3.554 0.9,-7.105 2.22,-10.66 l 47.51,-120.793 34.2,100.36 c 5.33,15.992 5.33,19.996 5.33,23.109 0,23.965 -28.41,17.316 -28.41,27.082 0,4.449 5.33,4.883 13.32,4.883 5.33,0 12.45,-1.774 24.87,-1.774 10.21,0 18.2,1.774 22.66,1.774 5.32,0 8.42,-1.774 8.42,-5.328 0,-10.219 -15.08,0.894 -23.97,-25.758 l -84.39,-243.371" /><path
         id="path36"
         style="fill:#fab60a;fill-opacity:1;fill-rule:nonzero;stroke:none"
         d="m 993.141,854.395 v 49.007 C 582.488,817.359 412.945,642.438 402.582,633.531 c 235.727,170.25 490.637,203.364 567.426,216.617 5.379,0.926 23.133,4.247 23.133,4.247" /><path
         id="path38"
         style="fill:#fab60a;fill-opacity:1;fill-rule:nonzero;stroke:none"
         d="m 1322.32,846.059 c 6.53,0 222.94,-32.598 212.51,-203.371 54.74,177.292 -100.4,234.66 -121.25,243.777 0,0 -76.91,-33.91 -91.26,-40.406" /><path
         id="path40"
         style="fill:#fab60a;fill-opacity:1;fill-rule:nonzero;stroke:none"
         d="M 246.137,244.387 C 165.945,-23.5156 763.047,-138.234 1346.99,253.379 1039.68,55.9375 259.832,-97.8242 246.137,244.387" /><path
         id="path42"
         style="fill:#fab60a;fill-opacity:1;fill-rule:nonzero;stroke:none"
         d="M 1008.76,968.324 V 820.703 l 105.24,44.621 68.87,29.188 -68.87,29.195 -105.24,44.617" /><path
         id="path44"
         style="fill:#fab60a;fill-opacity:1;fill-rule:nonzero;stroke:none"
         d="m 1114,968.324 v -35.496 l 90.39,-38.316 -90.39,-38.317 v -35.492 l 107.43,45.547 66.68,28.262 -66.68,28.273 -107.43,45.539" /><path
         id="path46"
         style="fill:#fab60a;fill-opacity:1;fill-rule:nonzero;stroke:none"
         d="m 1221.43,968.324 v -36.426 l 88.21,-37.386 -88.21,-37.387 v -36.422 l 174.11,73.809 -174.11,73.812" /></g></g></svg>