<?xml version="1.0" encoding="UTF-8" standalone="no"?>
<svg
   xmlns:dc="http://purl.org/dc/elements/1.1/"
   xmlns:cc="http://creativecommons.org/ns#"
   xmlns:rdf="http://www.w3.org/1999/02/22-rdf-syntax-ns#"
   xmlns:svg="http://www.w3.org/2000/svg"
   xmlns="http://www.w3.org/2000/svg"
   viewBox="0 0 1600 218.96001"
   height="218.96001"
   width="1600"
   xml:space="preserve"
   id="svg2"
   version="1.1"><metadata
     id="metadata8"><rdf:RDF><cc:Work
         rdf:about=""><dc:format>image/svg+xml</dc:format><dc:type
           rdf:resource="http://purl.org/dc/dcmitype/StillImage" /></cc:Work></rdf:RDF></metadata><defs
     id="defs6" /><g
     transform="matrix(1.3333333,0,0,-1.3333333,0,218.96)"
     id="g10"><g
       transform="scale(0.1)"
       id="g12"><path
         id="path14"
         style="fill:#38414e;fill-opacity:1;fill-rule:nonzero;stroke:none"
         d="m 8171.36,760.859 c -30.24,38.055 -68.43,69.059 -111.89,90.836 -41.7,19.075 -87.12,28.606 -132.97,27.903 -49.26,1.375 -98.21,-8.153 -143.36,-27.903 -40.19,-17.632 -75.56,-44.656 -103.14,-78.797 -27.88,-34.043 -48.71,-73.289 -61.29,-115.457 -14.33,-45.863 -21.44,-93.671 -21.07,-141.722 -0.08,-48.289 8.15,-96.231 24.36,-141.719 15.21,-42.09 37.71,-81.16 66.47,-115.461 28.43,-33.25 63.59,-60.098 103.15,-78.777 42.75,-19.422 89.31,-28.953 136.25,-27.91 106.7,0 190.42,40.218 248.15,120.648 L 8296.68,157.039 C 8251.49,104.09 8193.86,63.1914 8128.96,38.0391 c -131.96,-48.8907 -277.06,-48.8907 -409.02,0 -60.23,23.3711 -114.51,59.8007 -158.96,106.6989 -44.92,46.703 -80,101.973 -103.14,162.512 -48.88,132.609 -48.88,278.32 0,410.934 23.14,60.535 58.22,115.796 103.14,162.507 45.57,45.954 99.53,82.731 158.96,108.348 65.44,26.711 135.62,39.841 206.29,38.571 70.61,0.6 140.66,-12.5 206.29,-38.571 64.87,-25.312 122.96,-65.406 169.63,-117.101 L 8171.36,760.859" /><path
         id="path16"
         style="fill:#38414e;fill-opacity:1;fill-rule:nonzero;stroke:none"
         d="m 8482.44,1619.12 h 162.51 V 869.203 h 3.56 c 27.61,46.192 67.6,83.723 115.45,108.34 60.48,33.387 128.46,50.807 197.54,50.617 56.78,1.13 113.22,-9 166.07,-29.82 44.55,-17.637 84.16,-45.801 115.45,-82.082 31.51,-36.551 54.75,-79.481 68.13,-125.848 15.1,-52.851 22.74,-107.551 22.7,-162.512 V 28.1797 H 9171.34 V 615.59 c 0,82.074 -17.51,146.91 -54.17,193.969 -36.66,47.332 -92.75,71.679 -169.62,71.679 -46.98,1.446 -93.64,-8.109 -136.25,-27.902 -37.59,-17.023 -70.12,-43.512 -94.39,-76.883 -25.27,-35.976 -43.64,-76.324 -54.18,-119.012 -12.5,-49.722 -18.39,-100.863 -17.51,-152.121 V 28.1797 h -162.51 l -0.27,1590.9403" /><path
         id="path18"
         style="fill:#38414e;fill-opacity:1;fill-rule:nonzero;stroke:none"
         d="M 11989.3,867.289 H 11701 V 377.828 c 0,-31.457 0,-61.277 1.6,-89.187 0.9,-24.84 6.8,-49.25 17.5,-71.68 9.2,-20.031 24.5,-36.602 43.8,-47.332 19.1,-12.32 47.3,-17.508 84,-17.508 50.1,0.789 99.5,12.07 145,33.098 L 12000,36.6602 C 11970.2,24.1211 11939.1,14.7695 11907.3,8.76172 11874.9,3.42188 11842.1,0.5 11809.3,0 c -57.7,0 -104.8,7.12109 -139.8,22.7109 -32.5,13.9688 -60.8,36.2305 -82.1,64.5586 -20,31.2615 -33.2,66.4215 -38.5,103.1525 -6.8,45.09 -9.7,90.668 -8.8,136.25 v 540.617 h -213.4 v 138.161 h 213.4 v 276.33 h 162.5 v -277.97 h 288.4 l -1.7,-136.521 v 0" /><path
         id="path20"
         style="fill:#38414e;fill-opacity:1;fill-rule:nonzero;stroke:none"
         d="m 2337.58,1617.48 h 326.93 V 329.129 h 606.56 V 28.4609 H 2337.58 V 1617.48" /><path
         id="path22"
         style="fill:#38414e;fill-opacity:1;fill-rule:nonzero;stroke:none"
         d="M 4393.34,28.1797 H 4091.02 V 166.352 h -3.56 c -12.63,-21.161 -27.3,-41.051 -43.77,-59.383 -18.92,-20.4885 -40.66,-38.1682 -64.57,-52.5276 -26.86,-16.3008 -55.62,-29.25 -85.63,-38.5703 C 3859.52,5.67969 3824.15,0.980469 3788.7,1.91016 c -80.43,0 -145.09,12.23044 -193.98,36.67184 -47.1,22.5469 -87.05,57.6797 -115.45,101.496 -28.83,46.793 -47.3,99.231 -54.17,153.762 -9.32,63.039 -13.99,126.691 -13.96,190.422 v 563.048 h 314.63 V 547.461 c 0,-29.82 1.65,-59.371 3.56,-90.832 1.59,-29.938 8.06,-59.418 19.15,-87.27 9.48,-25.949 26.55,-48.449 48.98,-64.578 21.06,-17.511 52.53,-24.351 92.74,-24.351 40.22,0 73.33,7.121 97.95,22.711 24.17,14.32 44.1,34.808 57.73,59.371 14.14,25.328 23.07,53.238 26.26,82.078 4.2,31.851 6.58,63.91 7.12,96.019 v 506.701 h 314.62 V 28.1797 h -0.54" /><path
         id="path24"
         style="fill:#38414e;fill-opacity:1;fill-rule:nonzero;stroke:none"
         d="m 5271.02,718.73 c -16.89,23.368 -39,42.481 -64.57,55.809 -28.05,14.641 -59.18,22.426 -90.83,22.707 -80.43,0 -141.72,-24.348 -185.22,-71.68 -43.77,-47.336 -66.48,-110.257 -66.48,-187.136 0,-76.879 22.71,-139.809 66.48,-187.129 43.78,-47.34 106.7,-71.692 185.22,-71.692 31.79,-0.949 63.23,6.903 90.83,22.711 24.15,14.668 45.92,32.942 64.57,54.168 L 5478.95,137.891 C 5431.15,88.2813 5371.58,51.5703 5305.77,31.1914 5171.03,-11.3906 5026,-8.30859 4893.19,39.9492 c -66.94,23.0821 -128.28,59.9922 -180.02,108.3398 -51.24,47.832 -92.27,105.531 -120.65,169.633 -30.12,69.449 -45.04,144.539 -43.78,220.226 -1.26,75.704 13.66,150.797 43.78,220.25 28.38,64.09 69.41,121.793 120.65,169.629 52.46,47.379 113.59,84.163 180.02,108.343 71.34,25.33 146.46,38.36 222.16,38.58 64.56,-0.93 128.67,-10.97 190.42,-29.83 65.86,-20.27 125.46,-56.991 173.18,-106.698 L 5271.02,718.73" /><path
         id="path26"
         style="fill:#38414e;fill-opacity:1;fill-rule:nonzero;stroke:none"
         d="m 5648.58,1047.31 h 314.63 V 28.1797 h -314.63 z m -24.35,391.79 c -0.82,48.81 18.82,95.74 54.17,129.4 33.93,34.98 80.68,54.55 129.41,54.18 48.81,0.82 95.74,-18.83 129.41,-54.18 34.97,-33.93 54.54,-80.68 54.17,-129.4 0.82,-48.82 -18.82,-95.74 -54.17,-129.41 -33.93,-34.98 -80.68,-54.55 -129.41,-54.18 -48.81,-0.81 -95.74,18.83 -129.41,54.18 -34.75,34.08 -54.29,80.73 -54.17,129.41" /><path
         id="path28"
         style="fill:#38414e;fill-opacity:1;fill-rule:nonzero;stroke:none"
         d="m 6917.77,537.059 c 0,76.882 -22.7,139.804 -66.48,187.14 -43.78,47.332 -106.7,71.68 -185.23,71.68 -80.43,0 -141.72,-24.348 -185.21,-71.68 -43.78,-47.336 -66.49,-110.258 -66.49,-187.14 0,-76.868 22.71,-139.797 66.49,-187.137 43.77,-47.32 106.7,-71.684 185.21,-71.684 80.44,0 141.72,24.364 185.23,71.684 45.69,48.976 66.48,110.269 66.48,187.137 z M 7243.07,28.1797 H 6952.79 V 162.789 h -3.55 c -14.77,-19.918 -31.16,-38.578 -48.98,-55.82 C 6878.84,86.8516 6854.71,69.8008 6828.58,56.3711 6799.71,40.3984 6769.27,27.4688 6737.74,17.7813 6704.83,7.92969 6670.59,3.21875 6636.25,3.83984 6565.59,2.75 6495.45,15.8711 6429.96,42.4102 6370.49,67.9609 6316.52,104.75 6271,150.75 c -44.64,47.988 -79.15,104.461 -101.5,166.078 -24.43,67.774 -36.3,139.442 -35.02,211.481 -0.65,69.601 10.54,138.8 33.1,204.64 20.39,62.781 51.79,121.43 92.75,173.188 39.52,49.765 88.88,90.84 145,120.653 60.64,30.83 127.88,46.42 195.9,45.42 62.43,0.42 124.48,-9.66 183.57,-29.82 55.66,-20.04 104.24,-55.89 139.81,-103.148 h 3.55 V 1620.76 H 7242.8 V 28.1797 h 0.27" /><path
         id="path30"
         style="fill:#38414e;fill-opacity:1;fill-rule:nonzero;stroke:none"
         d="m 10010.4,500.129 c -104.74,0 -188.73,-13.957 -250.01,-43.77 -61.29,-29.828 -92.76,-76.89 -92.76,-145.007 0,-61.282 21.08,-104.793 61.29,-131.051 41.86,-26.27 92.75,-38.571 153.76,-38.571 42.65,-0.679 84.97,7.629 124.22,24.34 34,14.86 64.4,36.879 89.2,64.571 24.2,26.847 42.7,58.429 54.2,92.75 12.3,35.019 19.1,104.781 21,145 v 31.461 c 0,0.277 -160.9,0.277 -160.9,0.277 z m -473.81,384.672 c 50.06,51.699 111.8,90.637 180.02,113.539 67.92,24.09 139.42,36.48 211.48,36.66 145.01,0 250.11,-35.02 314.61,-103.145 64.6,-68.125 96.1,-173.183 96.1,-312.984 V 197.539 c 0,-27.91 1.6,-57.738 3.5,-87.277 3.6,-29.8206 7.1,-57.7307 10.4,-82.0823 h -157.3 c -5.8,24.6601 -8.7,49.9101 -8.8,75.2423 0,27.906 -1.6,50.609 -1.6,71.68 h -3.6 C 10148.7,124.109 10104.3,81.5586 10052,50.8906 9992.9,17.5703 9925.92,0.648438 9858.05,1.91016 9810.17,1.89844 9762.51,8.35156 9716.33,21.0586 9674.82,32.6094 9635.71,51.5 9600.89,76.8789 9531.36,126.949 9490.79,207.91 9492.26,293.559 c 0,80.441 21.08,145.011 62.93,190.421 42.96,46.258 96.33,81.629 155.68,103.149 64.78,23.152 132.45,37.242 201.09,41.859 71.68,5.203 138.14,8.75 197.54,8.75 h 62.9 v 29.828 c 0,71.68 -21.1,125.852 -64.6,160.872 -41.8,36.66 -103.1,54.167 -179.98,54.167 -52.99,-0.042 -105.6,-8.917 -155.66,-26.261 -50.15,-16.793 -96.07,-44.231 -134.61,-80.438 l -100.96,108.895" /><path
         id="path32"
         style="fill:#38414e;fill-opacity:1;fill-rule:nonzero;stroke:none"
         d="M 10595.9,1010.65 H 10762 V 889.996 c 10.4,24.348 45.4,97.949 180,131.054 39.8,11.16 81,16.5 122.3,15.86 17.6,-0.23 35.1,-1.41 52.6,-3.55 11.4,-1.24 22.5,-4.2 33.1,-8.75 l -10.4,-166.075 c -28.3,8.481 -57.8,12.637 -87.3,12.309 -101.5,0 -173.2,-33.106 -218.6,-97.946 -45.4,-64.57 -68.1,-153.757 -68.1,-267.578 V 28.1797 h -169.7 c 0,0 0,951.0083 0,982.4703" /><path
         id="path34"
         style="fill:#f57f15;fill-opacity:1;fill-rule:nonzero;stroke:none"
         d="m 1638.27,218.879 c 0,117.859 -95.54,213.402 -213.4,213.402 -117.86,0 -213.4,-95.543 -213.4,-213.402 0,-117.859 95.54,-213.39853 213.4,-213.39853 v 0 c 117.05,-0.80859 212.59,93.41793 213.4,210.46853 0.01,0.973 0.01,1.949 0,2.93" /><path
         id="path36"
         style="fill:#f57f15;fill-opacity:1;fill-rule:nonzero;stroke:none"
         d="m 1423.23,1215.3 c -117.05,-0.81 -212.59,93.42 -213.4,210.47 -0.01,0.97 -0.01,1.95 0,2.93 -0.05,117.86 95.45,213.44 213.31,213.49 117.86,0.05 213.44,-95.45 213.49,-213.31 0,-0.06 0,-0.12 0,-0.18 0.81,-117.05 -93.42,-212.6 -210.47,-213.4 -0.98,-0.01 -1.95,-0.01 -2.93,0" /><path
         id="path38"
         style="fill:#f57f15;fill-opacity:1;fill-rule:nonzero;stroke:none"
         d="M 1033.36,218.879 C 1034.27,101.02 939.461,4.73828 821.605,3.83984 703.742,2.92969 607.469,97.7305 606.559,215.602 c -0.008,1.089 -0.008,2.179 0,3.277 C 606.305,435 431.168,610.129 215.051,610.391 97.1914,609.48 0.914063,704.285 0.0078125,822.148 -0.902344,940.004 93.9102,1036.29 211.766,1037.19 c 1.093,0.01 2.191,0.01 3.285,0 216.117,0.25 391.254,175.39 391.508,391.51 0,117.86 95.543,213.4 213.406,213.4 117.855,0 213.395,-95.54 213.395,-213.4 0,-117.86 -95.54,-213.4 -213.395,-213.4 C 603.738,1214.95 428.738,1039.38 429.09,823.148 429.441,607.422 604.234,432.629 819.965,432.281 937.594,431.738 1032.82,336.512 1033.36,218.879" /></g></g></svg>