<?xml version="1.0" encoding="UTF-8" standalone="no"?>
<svg
   xmlns:dc="http://purl.org/dc/elements/1.1/"
   xmlns:cc="http://creativecommons.org/ns#"
   xmlns:rdf="http://www.w3.org/1999/02/22-rdf-syntax-ns#"
   xmlns:svg="http://www.w3.org/2000/svg"
   xmlns="http://www.w3.org/2000/svg"
   viewBox="0 0 480 480"
   height="480"
   width="480"
   xml:space="preserve"
   id="svg2"
   version="1.1"><metadata
     id="metadata8"><rdf:RDF><cc:Work
         rdf:about=""><dc:format>image/svg+xml</dc:format><dc:type
           rdf:resource="http://purl.org/dc/dcmitype/StillImage" /></cc:Work></rdf:RDF></metadata><defs
     id="defs6"><clipPath
       id="clipPath18"
       clipPathUnits="userSpaceOnUse"><path
         id="path16"
         d="M 0,360 H 360 V 0 H 0 Z" /></clipPath></defs><g
     transform="matrix(1.3333333,0,0,-1.3333333,0,480)"
     id="g10"><g
       id="g12"><g
         clip-path="url(#clipPath18)"
         id="g14"><g
           transform="translate(140.9237,179.4872)"
           id="g20"><path
             id="path22"
             style="fill:#11b3e8;fill-opacity:1;fill-rule:nonzero;stroke:none"
             d="m 0,0 h 6.634 c 2.115,0 3.691,1.866 3.691,4.768 0,3.027 -1.908,4.769 -3.939,4.769 L 0,9.537 Z m -5.722,-14.886 v 29.44 H 6.759 c 5.432,0 9.371,-4.976 9.371,-9.786 0,-5.017 -3.69,-9.785 -9.164,-9.785 H 0 v -9.869 z" /></g><g
           transform="translate(167.5024,179.4872)"
           id="g24"><path
             id="path26"
             style="fill:#11b3e8;fill-opacity:1;fill-rule:nonzero;stroke:none"
             d="m 0,0 h 7.173 c 2.115,0 3.732,2.115 3.732,4.768 0,2.737 -1.949,4.769 -3.98,4.769 L 0,9.537 Z m -5.722,-14.886 v 29.44 h 13.02 c 5.432,0 9.371,-4.976 9.371,-9.786 0,-3.773 -2.073,-7.214 -5.308,-8.583 l 6.925,-11.071 H 11.818 L 5.639,-5.017 H 0 v -9.869 z" /></g><g
           transform="translate(202.5405,169.4526)"
           id="g28"><path
             id="path30"
             style="fill:#11b3e8;fill-opacity:1;fill-rule:nonzero;stroke:none"
             d="m 0,0 c 5.266,0 8.169,5.017 8.169,9.869 0,5.1 -3.152,9.827 -8.21,9.827 -5.267,0 -8.211,-4.976 -8.211,-9.827 C -8.252,4.769 -5.183,0 0,0 m -14.015,9.869 c 0,7.837 5.971,14.927 14.056,14.927 8.335,0 13.891,-7.588 13.891,-15.01 0,-7.796 -5.888,-14.845 -14.015,-14.845 -8.334,0 -13.932,7.381 -13.932,14.928" /></g><g
           transform="translate(232.4365,189.0242)"
           id="g32"><path
             id="path34"
             style="fill:#11b3e8;fill-opacity:1;fill-rule:nonzero;stroke:none"
             d="M 0,0 H -4.976 V -19.406 H 0 c 5.639,0 8.749,4.188 8.749,9.745 C 8.749,-3.981 5.556,0 0,0 M -10.698,-24.423 V 5.017 H 0 c 9.62,0 14.513,-6.551 14.513,-14.678 0,-8.915 -5.681,-14.762 -14.513,-14.762 z" /></g><g
           transform="translate(252.3393,164.6012)"
           id="g36"><path
             id="path38"
             style="fill:#11b3e8;fill-opacity:1;fill-rule:nonzero;stroke:none"
             d="M 0,0 V 29.44 H 5.722 V 5.017 H 20.733 V 0 Z" /></g><g
           transform="translate(276.2648,194.0415)"
           id="g40"><path
             id="path42"
             style="fill:#11b3e8;fill-opacity:1;fill-rule:nonzero;stroke:none"
             d="M 0,0 7.256,-14.181 14.637,0 h 6.179 L 10.118,-19.157 V -29.44 H 4.437 v 10.366 L -6.22,0 Z" /></g><g
           transform="translate(107.6472,182.2121)"
           id="g44"><path
             id="path46"
             style="fill:#11b3e8;fill-opacity:1;fill-rule:nonzero;stroke:none"
             d="m 0,0 c 0,-7.022 -5.611,-12.729 -12.594,-12.891 v -0.006 h -0.227 c -0.026,0 -0.052,-10e-4 -0.077,-10e-4 v 10e-4 h -5.621 c -3.326,0 -6.021,-2.695 -6.021,-6.021 v 0 c -7.124,0 -12.899,5.775 -12.899,12.899 v 0.278 c 0,7.124 5.775,12.899 12.899,12.899 V 7.153 h 5.617 c 3.327,0 6.025,2.697 6.025,6.024 C -5.775,13.177 0,7.402 0,0.279 Z m -18.718,23.977 c -14.826,0 -26.849,-12.022 -26.849,-26.847 0,-14.828 12.023,-26.847 26.849,-26.847 14.824,0 26.846,12.019 26.846,26.847 0,14.825 -12.022,26.847 -26.846,26.847" /></g></g></g></g></svg>