<?xml version="1.0" encoding="UTF-8" standalone="no"?>
<svg
   xmlns:dc="http://purl.org/dc/elements/1.1/"
   xmlns:cc="http://creativecommons.org/ns#"
   xmlns:rdf="http://www.w3.org/1999/02/22-rdf-syntax-ns#"
   xmlns:svg="http://www.w3.org/2000/svg"
   xmlns="http://www.w3.org/2000/svg"
   viewBox="0 0 765.33331 141.33333"
   height="141.33333"
   width="765.33331"
   xml:space="preserve"
   id="svg2"
   version="1.1"><metadata
     id="metadata8"><rdf:RDF><cc:Work
         rdf:about=""><dc:format>image/svg+xml</dc:format><dc:type
           rdf:resource="http://purl.org/dc/dcmitype/StillImage" /></cc:Work></rdf:RDF></metadata><defs
     id="defs6"><clipPath
       id="clipPath20"
       clipPathUnits="userSpaceOnUse"><path
         id="path18"
         d="M 0,0 H 574 V 106 H 0 Z" /></clipPath></defs><g
     transform="matrix(1.3333333,0,0,-1.3333333,0,141.33333)"
     id="g10"><g
       id="g12" /><g
       id="g14"><g
         clip-path="url(#clipPath20)"
         id="g16"><path
           id="path22"
           style="fill:#28343c;fill-opacity:1;fill-rule:nonzero;stroke:none"
           d="m 64.0547,63.9526 v -21.285 c 0,-22.999 18.423,-41.992 41.072,-42.34 10.511,0 20.557,3.935 28.291,11.081 7.689,7.105 12.405,16.729 13.278,27.092 0.338,3.173 0.443,11.293 0.443,14.496 0,3.203 -0.105,11.323 -0.443,14.496 -0.875,10.367 -5.591,19.989 -13.278,27.095 -7.734,7.148 -17.781,11.084 -28.291,11.084 -8.965,0 -17.566,-2.906 -24.707,-8.19 -0.322,-0.285 -0.411,-0.881 -0.079,-1.401 l 8.725,-14.473 c 0.378,-0.468 0.857,-0.472 1.295,-0.148 l -0.004,-0.021 c 4.132,3.495 9.357,5.428 14.77,5.428 5.541,0 10.892,-2.013 15.068,-5.666 4.137,-3.62 6.84,-8.587 7.612,-13.991 0.531,-3.48 0.589,-10.601 0.589,-14.213 0,-3.627 -0.016,-9.806 -0.57,-14.079 -0.743,-5.432 -3.436,-10.434 -7.582,-14.084 -4.184,-3.681 -9.552,-5.71 -15.117,-5.71 h -0.045 c -5.968,0.116 -11.557,2.556 -15.739,6.875 -4.18,4.318 -6.482,10.013 -6.482,16.036 v 21.918 -0.621 c 0,22.999 -18.423,41.993 -41.072,42.34 -10.51,0 -20.558,-3.935 -28.291,-11.08 -7.69,-7.105 -12.405,-16.729 -13.278,-27.093 -0.338,-3.172 -0.443,-11.293 -0.443,-14.495 0,-3.203 0.105,-11.324 0.443,-14.496 0.875,-10.367 5.59,-19.99 13.278,-27.096 7.734,-7.147 17.781,-11.084 28.291,-11.084 8.965,0 17.566,2.908 24.706,8.191 0.323,0.285 0.412,0.881 0.08,1.4 l -8.725,14.474 c -0.378,0.467 -0.857,0.472 -1.295,0.147 l 0.004,0.022 c -4.132,-3.496 -9.357,-5.428 -14.77,-5.428 -5.541,0 -10.892,2.012 -15.068,5.666 -4.137,3.619 -6.84,8.587 -7.612,13.991 -0.532,3.48 -0.589,10.601 -0.589,14.213 0,3.627 0.016,9.806 0.57,14.078 0.743,5.433 3.435,10.435 7.581,14.084 4.184,3.683 9.553,5.71 15.118,5.71 l 0.045,10e-4 c 5.968,-0.116 11.556,-2.556 15.739,-6.876 4.18,-4.317 6.482,-10.012 6.482,-16.035 z" /><path
           id="path24"
           style="fill:#28343c;fill-opacity:1;fill-rule:nonzero;stroke:none"
           d="m 248.2812,16.0449 h 14.724 l 23.52,73.419 h -15.24 l -15.92,-51.275 -16.685,51.275 h -14.279 l -16.842,-51.275 -15.764,51.275 h -15.24 l 23.522,-73.419 h 14.725 l 16.819,50.896 z" /><path
           id="path26"
           style="fill:#28343c;fill-opacity:1;fill-rule:nonzero;stroke:none"
           d="m 460.7998,16.0449 h 17.655 l 28.631,73.419 h -15.344 l -22.038,-56.146 -22.192,56.146 h -15.346 z" /><path
           id="path28"
           style="fill:#28343c;fill-opacity:1;fill-rule:nonzero;stroke:none"
           d="m 397.9033,27.0449 c -10.095,0 -19.461,7.662 -20.998,17.533 l -0.02,-0.356 -0.105,0.962 c -0.264,2.389 -0.263,5.026 -0.262,6.952 v 0.618 0.288 c -0.001,1.925 -0.002,4.562 0.262,6.952 l 0.105,0.962 0.02,-0.025 c 1.537,9.871 10.903,17.201 20.998,17.201 9.999,0 19.293,-7.33 20.825,-17.201 l 0.019,0.023 0.107,-0.96 c 0.263,-2.39 0.262,-5.027 0.262,-6.952 v -0.906 c 0,-1.926 10e-4,-4.563 -0.262,-6.952 l -0.106,-0.631 -0.02,-0.307 c -1.532,-9.871 -10.826,-17.201 -20.825,-17.201 m -34.371,17.945 c 1.408,-17.301 16.998,-30.855 34.371,-30.855 7.044,0 14.691,2.196 20.452,6.351 l 0.784,0.564 2.689,-5.005 h 11.833 c -0.836,3.715 -1.273,8.954 -1.273,12.365 v 29.358 c 0,18.53 -15.954,33.606 -34.485,33.606 -17.373,0 -32.963,-13.554 -34.371,-30.855 h -0.002 c -0.253,-2.509 -0.251,-5.308 -0.251,-7.353 l 0.001,-0.412 -0.001,-0.411 c 0,-2.045 -0.002,-4.844 0.251,-7.353 z" /><path
           id="path30"
           style="fill:#28343c;fill-opacity:1;fill-rule:nonzero;stroke:none"
           d="m 300.7207,57.4521 0.047,1.638 c 0.887,10.706 9.985,19.074 20.715,19.074 10.556,0 19.642,-8.221 20.687,-18.717 l 0.056,-1.903 z m 54.758,-0.575 c 0,18.758 -15.569,34.496 -33.996,34.496 -18.744,0 -33.995,-15.25 -33.995,-33.996 v -9.247 c 0,-18.744 15.822,-33.995 34.973,-33.995 12.645,0 24.006,6.369 31.027,17.49 l -11.725,6.022 c -4.612,-6.647 -11.532,-10.303 -19.302,-10.303 -9.659,0 -18.916,7.115 -21.21,16.551 -0.071,0.275 -0.071,0.57 -0.071,0.865 l 53.972,0.18 z" /><path
           id="path32"
           style="fill:#28343c;fill-opacity:1;fill-rule:nonzero;stroke:none"
           d="m 519.4658,57.4521 0.047,1.638 c 0.886,10.706 9.985,19.074 20.715,19.074 10.555,0 19.641,-8.221 20.686,-18.717 l 0.057,-1.903 z m 54.758,-0.575 c -10e-4,18.758 -15.569,34.496 -33.996,34.496 -18.745,0 -33.995,-15.25 -33.995,-33.996 v -9.247 c 0,-18.744 15.822,-33.995 34.973,-33.995 12.644,0 24.005,6.369 31.026,17.49 l -11.724,6.022 c -4.613,-6.647 -11.532,-10.303 -19.302,-10.303 -9.66,0 -18.916,7.115 -21.21,16.551 -0.071,0.275 -0.071,0.57 -0.071,0.865 l 53.971,0.18 z" /></g></g></g></svg>